<svg width="1920" height="964" viewBox="0 0 1920 964" fill="none" xmlns="http://www.w3.org/2000/svg">
<path d="M1962 27.2274V1120.75C1962 1127.97 1958.97 1134.9 1953.58 1140C1948.18 1145.1 1940.87 1147.97 1933.24 1147.97H28.7628C21.1345 1147.97 13.8185 1145.1 8.42444 1140C3.03036 1134.9 0 1127.97 0 1120.75V370.557C0 368.314 2.37071 366.865 4.36694 367.886L141.827 438.248C144.861 439.801 147.723 435.895 145.328 433.47L31.1926 317.866C29.1796 315.828 30.897 312.397 33.7355 312.787L62.9388 316.797C65.7347 317.18 67.4657 313.843 65.5411 311.778L0.80585 242.353C0.287977 241.797 0 241.066 0 240.307V63.4433C0 60.6875 3.40394 59.3897 5.23859 61.4461L120.306 190.423C122.561 192.95 126.62 190.39 125.312 187.266L63.4872 39.7006C62.3943 37.092 65.1877 34.5586 67.6774 35.9004L93.711 49.9308C96.1621 51.2518 98.9341 48.8112 97.9341 46.2125L81.7205 4.07739C80.9643 2.11232 82.4148 0 84.5203 0H184.976C186.116 0 187.157 0.646207 187.664 1.66768L213.207 53.2003C213.996 54.7918 213.237 56.7165 211.574 57.341L162.52 75.7653C160.547 76.5064 159.933 78.9977 161.336 80.5707L325.958 265.137C328.212 267.664 332.272 265.105 330.964 261.982L269.167 114.426C268.075 111.817 270.868 109.284 273.358 110.627L299.38 124.654C301.831 125.976 304.604 123.535 303.603 120.936L258.629 4.08762C257.872 2.1225 259.323 0.00999561 261.429 0.00999561H1933.24C1940.87 0.00999561 1948.18 2.87754 1953.58 7.98179C1958.97 13.0861 1962 20.0089 1962 27.2274Z" fill="#003F6E"/>
</svg>
