<svg width="134" height="57" viewBox="0 0 134 57" fill="none" xmlns="http://www.w3.org/2000/svg">
<g clip-path="url(#clip0_67_87)">
<path d="M25.6843 29.9398C25.6857 31.4185 25.1888 32.8543 24.2744 34.0145C23.3599 35.1747 22.0814 35.9913 20.6461 36.3318C19.2109 36.6724 17.703 36.517 16.3668 35.8908C15.0306 35.2646 13.9446 34.2044 13.2846 32.882C12.6247 31.5596 12.4296 30.0525 12.7309 28.605C13.0322 27.1574 13.8123 25.8544 14.9447 24.907C16.0771 23.9596 17.4955 23.4234 18.97 23.3853C20.4444 23.3472 21.8884 23.8094 23.068 24.6971C23.8796 25.3079 24.5385 26.0994 24.9926 27.0093C25.4466 27.9192 25.6834 28.9224 25.6843 29.9398Z" fill="#003F6E"/>
<path d="M38.9489 36.379C38.9489 39.2787 37.7157 41.6284 36.1864 41.6284C34.6572 41.6284 33.4238 39.2787 33.4238 36.379C33.4238 33.4794 34.6605 31.1296 36.1864 31.1296C37.7123 31.1296 38.9489 33.4827 38.9489 36.379Z" fill="#003F6E"/>
<path d="M55.5377 25.7803L45.2752 31.343L52.6987 23.3739L50.1089 23.7506L54.7232 18.5112L53.1807 4.60613L45.744 13.4351L49.7765 3.29295L47.5192 4.58613L49.1814 0L42.865 1.03988L40.0859 6.97585L43.2174 8.22239L33.2243 20.0877L37.2369 9.94551L34.9696 11.2454L38.4104 1.77646L5.96085 7.1525L7.76269 15.6015L2.56997 10.7754L1.61587 16.2681L-0.00976562 14.6016L6.38971 56.9833H58.9817L55.5377 25.7803ZM50.2187 40.7786C50.179 41.1837 49.99 41.5595 49.6888 41.8325C49.3876 42.1055 48.9957 42.2562 48.5897 42.2551H48.4733C48.1975 43.9225 47.4422 45.473 46.3001 46.7163C45.1581 47.9596 43.6788 48.8417 42.0439 49.2542C41.3504 49.4357 40.6364 49.5264 39.9197 49.5242L28.9491 49.4809C26.0621 49.4774 23.2575 48.5162 20.9724 46.7474C18.6873 44.9785 17.0502 42.5013 16.3164 39.702C14.315 39.5014 12.4011 38.7781 10.7656 37.6043C9.13011 36.4305 7.83022 34.8473 6.99558 33.0126C6.16095 31.1779 5.82076 29.1558 6.00898 27.1482C6.19719 25.1405 6.90722 23.2174 8.06822 21.5707C9.22923 19.9241 10.8006 18.6114 12.6256 17.7637C14.4506 16.916 16.4654 16.5629 18.469 16.7397C20.4726 16.9164 22.395 17.6168 24.0443 18.7709C25.6937 19.9251 27.0123 21.4927 27.8687 23.3173C28.2277 23.2873 28.5901 23.2706 28.9624 23.2706C31.7117 23.2715 34.3907 24.1417 36.6182 25.7574C38.8456 27.373 40.5081 29.6518 41.3691 32.2696C41.5256 32.7333 41.6534 33.2064 41.7514 33.6861C41.7514 33.7461 41.778 33.8094 41.7879 33.8727C42.0833 35.2698 42.7165 36.5728 43.6318 37.6671C44.5471 38.7614 45.7165 39.6136 47.0372 40.1486C47.1291 39.8441 47.3071 39.5728 47.5496 39.3676C47.792 39.1623 48.0887 39.0319 48.4035 38.9921H48.603C48.818 38.9912 49.0311 39.033 49.2299 39.1151C49.4288 39.1972 49.6094 39.318 49.7615 39.4704C49.9135 39.6229 50.034 39.804 50.1159 40.0034C50.1978 40.2027 50.2394 40.4163 50.2385 40.6319C50.2385 40.6786 50.232 40.7253 50.232 40.7819L50.2187 40.7786Z" fill="#003F6E"/>
<path d="M69.0578 9.03561H79.759C82.7244 9.03561 84.9983 9.82995 86.5807 11.4187C87.9105 12.7518 88.5754 14.5394 88.5754 16.7814V16.848C88.5754 18.7478 88.1122 20.2965 87.1858 21.4942C86.2496 22.6974 84.9919 23.6094 83.5589 24.1238L89.2768 32.5062H83.2563L74.194 20.4376V32.5062H69.0578V9.03561ZM79.4233 20.4376C80.6932 20.4376 81.6706 20.1343 82.3488 19.531C82.6864 19.2296 82.953 18.8568 83.1295 18.4395C83.306 18.0222 83.3879 17.5709 83.3694 17.118V17.0513C83.3694 15.9315 83.0137 15.0949 82.2989 14.535C81.5842 13.975 80.5934 13.6984 79.3235 13.6984H74.2073V20.4376H79.4233Z" fill="#2E2D2C"/>
<path d="M102.229 32.9095C100.587 32.9245 98.9594 32.6047 97.4448 31.9696C96.0187 31.3796 94.7251 30.5091 93.6402 29.4094C92.5553 28.3097 91.7012 27.0032 91.1285 25.567C90.5212 24.0651 90.214 22.4582 90.2242 20.8376V20.7709C90.1995 17.5776 91.4254 14.502 93.6384 12.2052C94.7302 11.082 96.0374 10.192 97.4814 9.58889C99.0501 8.93852 100.734 8.61423 102.431 8.63567C103.435 8.62671 104.437 8.71601 105.423 8.9023C106.265 9.06458 107.088 9.31136 107.88 9.63889C108.6 9.94347 109.284 10.3257 109.921 10.7788C110.539 11.2235 111.121 11.7173 111.66 12.2552L108.382 16.0448C107.545 15.2708 106.605 14.6159 105.59 14.0984C104.594 13.618 103.5 13.3772 102.395 13.3951C101.476 13.3848 100.565 13.5709 99.7226 13.941C98.8805 14.3111 98.1268 14.8567 97.5114 15.5415C96.9029 16.2248 96.4272 17.0161 96.1085 17.8746C95.7692 18.78 95.5991 19.7404 95.6065 20.7076V20.7742C95.5996 21.7468 95.7698 22.7125 96.1085 23.6239C96.4251 24.4797 96.8948 25.2704 97.4948 25.957C98.1073 26.652 98.8621 27.2065 99.7077 27.5827C100.553 27.9588 101.47 28.1478 102.395 28.1367C103.57 28.1748 104.735 27.9218 105.789 27.4001C106.791 26.8563 107.719 26.184 108.548 25.4004L111.826 28.7333C111.246 29.3612 110.621 29.945 109.955 30.4798C109.298 31.0016 108.585 31.4487 107.83 31.813C107.025 32.1938 106.177 32.4747 105.304 32.6495C104.29 32.8406 103.26 32.9277 102.229 32.9095Z" fill="#2E2D2C"/>
<path d="M69.29 50.994L70.0082 49.9942C70.9467 50.7452 72.1023 51.172 73.3026 51.2107C74.4429 51.2107 75.2706 50.6208 75.2706 49.6975V49.6609C75.2706 48.701 74.1503 48.3277 72.897 47.9944C71.4077 47.5711 69.7488 47.0545 69.7488 45.3014V45.2647C69.7488 43.6216 71.1119 42.535 72.9901 42.535C74.207 42.5568 75.3933 42.9206 76.4142 43.5849L75.7693 44.6548C74.9349 44.0898 73.9596 43.7701 72.9535 43.7316C71.8299 43.7316 71.1118 44.3215 71.1118 45.1147V45.1547C71.1118 46.058 72.292 46.4079 73.5619 46.7945C75.0346 47.2378 76.617 47.7944 76.617 49.5276V49.5642C76.617 51.374 75.1244 52.4239 73.2295 52.4239C71.7953 52.3941 70.4109 51.8916 69.29 50.994Z" fill="#2E2D2C"/>
<path d="M81.4079 49.6842V43.9282H80.0782V42.675H81.4079V39.7953H82.8241V42.675H85.8427V43.9282H82.8241V49.5009C82.8241 50.6607 83.4691 51.0874 84.4265 51.0874C84.9064 51.0888 85.3796 50.9745 85.8061 50.7541V51.9739C85.2779 52.2497 84.6896 52.3895 84.0941 52.3805C82.5649 52.3805 81.4079 51.6206 81.4079 49.6842Z" fill="#2E2D2C"/>
<path d="M90.0447 48.5976V42.675H91.4609V48.2477C91.4609 50.0175 92.4184 51.124 94.0939 51.124C95.7129 51.124 96.9462 49.9242 96.9462 48.1244V42.675H98.3458V52.2139H96.9462V50.5474C96.6238 51.1259 96.15 51.6051 95.5759 51.9335C95.0017 52.2618 94.3491 52.4268 93.6884 52.4105C91.3879 52.4172 90.0447 50.864 90.0447 48.5976Z" fill="#2E2D2C"/>
<path d="M102.824 47.4812V47.4445C102.824 44.3249 105.088 42.4817 107.369 42.4817C109.137 42.4817 110.278 43.4383 111.025 44.5082V38.7422H112.442V52.2139H111.025V50.2942C110.251 51.4374 109.127 52.4172 107.369 52.4172C105.088 52.4172 102.824 50.6075 102.824 47.4812ZM111.069 47.4612V47.4245C111.085 46.9567 111.009 46.4903 110.845 46.0522C110.68 45.6141 110.431 45.2131 110.111 44.8722C109.791 44.5313 109.407 44.2573 108.981 44.0661C108.554 43.8749 108.095 43.7703 107.628 43.7583C105.786 43.7583 104.277 45.1214 104.277 47.4245V47.4612C104.277 49.7142 105.843 51.1541 107.628 51.1541C109.413 51.1541 111.069 49.6476 111.069 47.4511V47.4612Z" fill="#2E2D2C"/>
<path d="M117.481 39.0188H119.1V40.5886H117.481V39.0188ZM117.575 42.685H118.991V52.2139H117.575V42.685Z" fill="#2E2D2C"/>
<path d="M123.538 47.4812V47.4445C123.533 46.1256 124.051 44.8589 124.978 43.9229C125.904 42.9868 127.164 42.4583 128.48 42.4534C129.795 42.4485 131.058 42.9678 131.992 43.8969C132.926 44.8261 133.453 46.089 133.458 47.4078V47.4445C133.464 48.1028 133.339 48.7557 133.091 49.365C132.842 49.9744 132.475 50.528 132.011 50.9935C131.547 51.459 130.995 51.827 130.387 52.076C129.779 52.3251 129.128 52.4501 128.471 52.4439C127.82 52.452 127.173 52.329 126.57 52.0823C125.967 51.8356 125.419 51.47 124.959 51.0074C124.499 50.5447 124.136 49.9942 123.892 49.3886C123.648 48.7829 123.527 48.1343 123.538 47.4812ZM132.005 47.4812V47.4445C132.005 45.3981 130.476 43.7183 128.471 43.7183C126.41 43.7183 124.994 45.3847 124.994 47.4078V47.4445C124.994 49.4943 126.503 51.1541 128.508 51.1541C130.559 51.1474 132.005 49.5009 132.005 47.4812Z" fill="#2E2D2C"/>
<path d="M114.103 9.03561H124.971C127.63 9.03561 129.751 9.77219 131.091 11.1154C131.619 11.6352 132.034 12.2588 132.311 12.947C132.587 13.6353 132.718 14.3733 132.697 15.1149V15.1849C132.697 17.8312 131.291 19.3044 129.618 20.2443C132.328 21.2842 134 22.8607 134 26.0103V26.0803C134 30.3698 130.523 32.5162 125.237 32.5162H114.103V9.03561ZM123.867 18.5245C126.141 18.5245 127.581 17.7879 127.581 16.0448V15.9748C127.581 14.435 126.377 13.5617 124.203 13.5617H119.12V18.5245H123.867ZM125.237 27.9801C127.511 27.9801 128.894 27.1735 128.894 25.4337V25.3637C128.894 23.7906 127.724 22.8173 125.081 22.8173H119.13V27.9801H125.237Z" fill="#2E2D2C"/>
</g>
<defs>
<clipPath id="clip0_67_87">
<rect width="134" height="57" fill="white"/>
</clipPath>
</defs>
</svg>
